Coordinates
version=1
nRows=11
nColumns=40
inDegrees=yes

Units are S.I. units (second, meters, Newtons, ...)
Angles are in degrees.

endheader
time	pelvis_tilt	pelvis_list	pelvis_rotation	pelvis_tx	pelvis_ty	pelvis_tz	hip_flexion_r	hip_adduction_r	hip_rotation_r	knee_angle_r	knee_angle_r_beta	ankle_angle_r	subtalar_angle_r	mtp_angle_r	hip_flexion_l	hip_adduction_l	hip_rotation_l	knee_angle_l	knee_angle_l_beta	ankle_angle_l	subtalar_angle_l	mtp_angle_l	lumbar_extension	lumbar_bending	lumbar_rotation	arm_flex_r	arm_add_r	arm_rot_r	elbow_flex_r	pro_sup_r	wrist_flex_r	wrist_dev_r	arm_flex_l	arm_add_l	arm_rot_l	elbow_flex_l	pro_sup_l	wrist_flex_l	wrist_dev_l
      1.29000000	     -4.23021906	     -7.36564661	      5.32330827	      0.98619644	      0.92680865	      0.46619059	     13.94921280	      6.03702937	    -16.21404935	     15.83693093	     15.83693093	      9.13200751	     -0.67023683	     -3.45158402	     31.18595694	    -11.64293975	      6.21106760	     72.01051981	     72.01051981	      7.05802605	    -18.02194125	      9.85802782	    -10.57258815	      6.01985060	      1.14684862	     12.46216087	    -16.54288993	     -3.79983869	     50.38716722	     45.55466327	      0.00000000	      0.00000000	      6.03763359	    -10.09840112	     -5.08979153	     40.18505529	     45.63306518	      0.00000000	      0.00000000
      1.30157143	     -4.40994283	     -7.36463218	      5.21379775	      0.98498112	      0.92713712	      0.46715688	     13.23963788	      6.23843247	    -16.09241630	     15.27075850	     15.27075850	      9.45293917	     -0.24908527	     -3.51352735	     32.98396575	    -11.72946235	      5.83841893	     70.69467317	     70.69467317	      7.62377086	    -18.40313315	     10.20445131	    -10.56369245	      5.87145969	      1.07127832	     15.04186384	    -16.49270610	     -3.84636266	     52.17184849	     45.50613205	      0.00000000	      0.00000000	      4.45180162	     -9.88711880	     -4.88119940	     38.74112354	     45.59506981	      0.00000000	      0.00000000
      1.31314286	     -4.55187839	     -7.34641884	      5.07463703	      0.98382054	      0.92743619	      0.46803190	     12.50503114	      6.40263215	    -16.01496348	     14.72780229	     14.72780229	      9.77131670	      0.30236668	     -3.58828086	     34.58299640	    -11.76928667	      5.44118026	     69.18417297	     69.18417297	      8.70917117	    -18.61902214	     12.27663841	    -10.61144550	      5.73620448	      1.37672347	     17.06163689	    -17.10931987	     -2.68776133	     55.09722651	     45.36877969	      0.00000000	      0.00000000	      3.53570281	     -9.45462951	     -4.67377433	     36.13787770	     45.60922584	      0.00000000	      0.00000000
      1.32471429	     -4.76699603	     -7.32497308	      4.87703994	      0.98262099	      0.92748331	      0.46892860	     11.96683586	      6.55127455	    -15.75776791	     14.39660775	     14.39660775	     10.11255507	      0.51591207	     -3.63977418	     36.02006161	    -11.91356116	      4.85787422	     67.25919990	     67.25919990	      9.10810483	    -18.84494055	     12.54177721	    -10.56060227	      5.55534045	      2.06630349	     19.34297064	    -17.54932818	     -2.92916892	     56.20474107	     45.35212772	      0.00000000	      0.00000000	      2.21805229	     -9.01510557	     -4.55304199	     35.43865791	     45.57691574	      0.00000000	      0.00000000
      1.33628571	     -4.76186958	     -7.34997642	      4.83183591	      0.98168026	      0.92786441	      0.46959461	     10.91189056	      6.81583291	    -15.64775942	     13.51366448	     13.51366448	     10.34396241	      1.00931127	     -3.47555747	     37.06131930	    -12.00653029	      4.42608792	     65.01685499	     65.01685499	      9.72910025	    -18.98179298	     13.72282729	    -10.79507591	      5.53194348	      1.32798031	     22.07476475	    -16.91017781	     -2.74674156	     58.78888990	     45.26969863	      0.00000000	      0.00000000	      0.59412471	     -8.92109570	     -4.28009607	     33.53001312	     45.52923316	      0.00000000	      0.00000000
      1.34785714	     -4.92518067	     -7.32848683	      4.70039677	      0.98059448	      0.92784872	      0.47006077	     10.26055574	      6.91556745	    -15.62265358	     13.06725338	     13.06725338	     10.74077815	      1.59755009	     -3.30887630	     38.16812984	    -11.98754419	      3.95461721	     62.59544255	     62.59544255	     10.83001076	    -19.01747142	     16.56978474	    -10.81741519	      5.45142012	      1.75635101	     23.92823124	    -17.61327133	     -1.62612724	     61.63359798	     45.14990441	      0.00000000	      0.00000000	     -0.02170511	     -8.45344157	     -3.83711737	     30.95891457	     45.50397756	      0.00000000	      0.00000000
      1.35942857	     -5.03616830	     -7.26736426	      4.55454813	      0.97960541	      0.92780372	      0.47045637	      9.55852101	      6.99492259	    -15.39722147	     12.62808849	     12.62808849	     11.04503821	      1.86629596	     -3.28909385	     38.92412017	    -12.00211554	      3.31024881	     59.64202775	     59.64202775	     11.02182593	    -19.05838545	     17.03121828	    -10.89744983	      5.31057630	      1.86650555	     26.29538458	    -17.47878774	     -1.78988043	     63.26137946	     45.11413170	      0.00000000	      0.00000000	     -1.33131292	     -8.12170674	     -3.66024058	     30.04818993	     45.46458377	      0.00000000	      0.00000000
      1.37100000	     -5.15189738	     -7.27078262	      4.45011442	      0.97867248	      0.92761249	      0.47058692	      8.84668291	      7.11121346	    -15.29403184	     12.15830093	     12.15830093	     11.36744943	      2.28218570	     -3.25478458	     39.53714602	    -11.95195469	      2.82277017	     56.38277569	     56.38277569	     11.14521712	    -19.06138640	     17.50864697	    -10.97814344	      5.29155384	      1.71532648	     28.58909148	    -17.19400659	     -1.72691321	     65.30551796	     45.05643726	      0.00000000	      0.00000000	     -2.64756533	     -7.77533326	     -3.39336695	     28.91529659	     45.41308084	      0.00000000	      0.00000000
      1.38257143	     -5.30846225	     -7.28235815	      4.34689954	      0.97774669	      0.92722348	      0.47049234	      8.22001295	      7.19085242	    -15.33004205	     11.77287529	     11.77287529	     11.70714977	      2.79976587	     -3.19724469	     40.03016098	    -11.83286301	      2.36419197	     52.83099624	     52.83099624	     11.14896424	    -18.97864757	     17.74730641	    -10.98833256	      5.32088245	      1.63265126	     30.76449361	    -17.05273868	     -1.45201114	     67.64961706	     44.98313255	      0.00000000	      0.00000000	     -3.83251055	     -7.35412910	     -3.01365134	     27.74699023	     45.34783608	      0.00000000	      0.00000000
      1.39414286	     -5.50152747	     -7.28837457	      4.21835789	      0.97687400	      0.92668799	      0.47020559	      7.66020429	      7.22388566	    -15.39774009	     11.47215287	     11.47215287	     12.12935736	      3.44322778	     -3.11353784	     40.35100484	    -11.60953674	      2.02388560	     48.95547300	     48.95547300	     10.85469545	    -18.81165809	     17.46552710	    -10.97150828	      5.35657584	      1.63297879	     32.75074904	    -17.02644543	     -1.06516930	     70.25502188	     44.90074655	      0.00000000	      0.00000000	     -4.90319635	     -6.92605698	     -2.49001882	     26.65977787	     45.26234042	      0.00000000	      0.00000000
      1.40571429	     -5.67373862	     -7.23452600	      4.08974843	      0.97614996	      0.92608412	      0.46969614	      7.11341902	      7.14802156	    -15.55348536	     11.29613133	     11.29613133	     12.73641510	      4.26020026	     -2.75438432	     40.36500637	    -11.28678053	      1.67447609	     44.68121627	     44.68121627	      9.89929530	    -18.52335342	     15.44926407	    -10.97179381	      5.34244934	      2.09548218	     34.23144417	    -17.52746158	     -0.62038029	     73.48440908	     44.81685456	      0.00000000	      0.00000000	     -5.70985125	     -6.61357721	     -1.23643168	     25.67636616	     45.07963580	      0.00000000	      0.00000000
